# xmcd
#
# Track frame offsets: 
#        150
#        107725
#        148700
#        189225
#        207337
#        239225
#        258825
#        295275
#        326450
#
# Disc length: 4535 seconds
#
# Revision: 0
# Processed by: cddbd v1.5.2PL0 Copyright (c) Steve Scherf et al.
# Submitted via: ExactAudioCopy v0.95a5
#
DISCID=8911b509
DTITLE=Arthur Grumiaux - Beethoven Violin  E and Bach Violin  BMV 1041& 
DTITLE=1042
DYEAR=1900
DGENRE=Classical
TTITLE0=Beethoven Vilolin Concerto in D Op. 61 1 Allegro ma non troppo
TTITLE1=Beethoven Vilolin Concerto in D Op. 61 2 Larghtto
TTITLE2=Beethoven Vilolin Concerto in D Op. 61 3 Rondo
TTITLE3=Bach Violin Cocerto in A minor BWV 1041 1 Allergo
TTITLE4=Bach Violin Cocerto in A minor BWV 1041 2 andante
TTITLE5=Bach Violin Cocerto in A minor BWV 1041 3 Allegro assai
TTITLE6=Bach Violin Cocerto in E BWV 1042  1 Allegro
TTITLE7=Bach Violin Cocerto in E BWV 1042  2 Adagio 
TTITLE8=Bach Violin Cocerto in E BWV 1042  3 Allegro assai
EXTD=
EXTT0=
EXTT1=
EXTT2=
EXTT3=
EXTT4=
EXTT5=
EXTT6=
EXTT7=
EXTT8=
PLAYORDER=
